<svg xmlns="http://www.w3.org/2000/svg" id="Capa_1" enable-background="new 0 0 512 512" height="512px" viewBox="0 0 512 512" width="512px"><g><g><path d="m509.804 193.115-68.943-68.943 15.91-15.91c2.929-2.929 2.929-7.678 0-10.606l-5.303-5.303 37.122-37.123c2.929-2.929 2.929-7.678 0-10.606l-21.213-21.214c-1.407-1.407-3.314-2.197-5.304-2.197s-3.896.79-5.304 2.197l-37.123 37.123-5.303-5.303c-1.407-1.407-3.314-2.197-5.304-2.197s-3.896.79-5.304 2.197l-15.909 15.91-68.941-68.943c-2.929-2.929-7.677-2.929-10.607 0l-63.64 63.639c-1.406 1.406-2.196 3.314-2.196 5.303s.79 3.897 2.196 5.303l79.55 79.55-168.196 168.195-79.549-79.549c-2.93-2.929-7.678-2.929-10.607 0l-63.64 63.64c-2.929 2.929-2.929 7.678 0 10.606l68.943 68.943-15.91 15.91c-2.929 2.929-2.929 7.678 0 10.606l5.303 5.303-37.123 37.124c-2.929 2.929-2.929 7.678 0 10.606l21.213 21.213c1.407 1.407 3.314 2.197 5.304 2.197s3.896-.79 5.304-2.197l37.123-37.123 5.303 5.303c1.407 1.407 3.314 2.197 5.304 2.197s3.896-.79 5.304-2.197l15.909-15.91 68.943 68.943c1.465 1.464 3.385 2.197 5.304 2.197s3.839-.732 5.304-2.197l63.64-63.64c2.929-2.929 2.929-7.678 0-10.606l-79.55-79.55 168.195-168.195 79.549 79.549c1.465 1.464 3.385 2.197 5.304 2.197s3.839-.732 5.304-2.197l63.64-63.64c1.406-1.406 2.196-3.314 2.196-5.303s-.792-3.895-2.198-5.302zm-47.731-153.795 10.606 10.607-31.819 31.819-10.607-10.607zm-53.033 31.819 31.82 31.82-10.607 10.607-31.82-31.82zm-359.114 210.623 180.313 180.312-10.606 10.606-180.313-180.312zm0 190.918-10.606-10.607 31.82-31.819 10.606 10.606zm53.033-31.82-31.819-31.819 10.606-10.606 31.819 31.819zm95.46 53.034-180.312-180.313 10.606-10.606 180.313 180.313zm42.427-42.427-180.313-180.312 10.607-10.607 180.313 180.313zm-63.64-106.067-10.606-10.606 168.195-168.195 10.606 10.606zm263.655-93.948-180.313-180.313 10.607-10.607 15.911 15.91c1.464 1.465 3.384 2.197 5.303 2.197s3.839-.732 5.304-2.197c2.929-2.929 2.929-7.678-.001-10.606l-15.91-15.909 10.607-10.607 180.311 180.313-10.606 10.606-143.189-143.19c-2.93-2.929-7.678-2.929-10.607 0s-2.929 7.678 0 10.606l143.189 143.19zm42.426-42.426-180.312-180.313 10.606-10.606 180.313 180.312z" data-original="#000000" class="active-path" fill="#000000"/></g></g> </svg>
