<svg width="100" height="100" viewBox="0 0 1440 1024" fill="none" xmlns="http://www.w3.org/2000/svg">
<rect width="1440" height="1024" fill="white"/>
<path d="M597.634 641.783L649.891 691.313C653.98 695.194 659.023 697.925 664.508 699.229C669.993 700.532 675.725 700.363 681.124 698.737C686.522 697.112 691.395 694.088 695.248 689.972C699.101 685.856 701.797 680.795 703.064 675.301C709.59 680.229 717.755 682.472 725.882 681.568C734.01 680.665 741.483 676.684 746.768 670.443C752.052 664.202 754.747 656.175 754.299 648.01C753.85 639.844 750.293 632.16 744.357 626.536L674.681 560.495L817.769 409.532L887.444 475.572C893.381 481.185 901.24 484.315 909.41 484.32C917.58 484.325 925.442 481.205 931.386 475.599C937.329 469.993 940.903 462.327 941.376 454.17C941.848 446.014 939.183 437.986 933.926 431.731C939.345 430.173 944.256 427.21 948.161 423.142C952.065 419.074 954.825 414.046 956.159 408.568C957.494 403.09 957.357 397.356 955.761 391.948C954.165 386.54 951.168 381.65 947.073 377.774L894.816 328.244C900.654 322.084 903.807 313.857 903.579 305.373C903.352 296.89 899.764 288.843 893.604 283.005C887.445 277.167 879.218 274.015 870.734 274.242C862.25 274.469 854.204 278.057 848.366 284.217L796.109 234.687C792.02 230.805 786.976 228.074 781.491 226.77C776.005 225.465 770.272 225.635 764.873 227.261C759.474 228.887 754.601 231.912 750.748 236.029C746.895 240.145 744.199 245.208 742.933 250.702C736.406 245.788 728.247 243.556 720.127 244.465C712.008 245.373 704.544 249.352 699.264 255.587C693.984 261.823 691.29 269.841 691.732 277.999C692.174 286.157 695.72 293.837 701.643 299.464L771.319 365.505L628.231 516.468L558.556 450.428C552.621 444.801 544.758 441.66 536.58 441.65C528.403 441.639 520.531 444.76 514.582 450.371C508.633 455.982 505.058 463.657 504.591 471.822C504.124 479.986 506.8 488.019 512.07 494.272C506.652 495.831 501.743 498.795 497.839 502.862C493.935 506.93 491.177 511.958 489.842 517.435C488.508 522.913 488.646 528.646 490.241 534.053C491.837 539.461 494.833 544.35 498.927 548.226L551.184 597.756C545.346 603.916 542.193 612.143 542.421 620.626C542.648 629.11 546.236 637.157 552.396 642.995C558.555 648.833 566.782 651.985 575.266 651.758C583.75 651.531 591.796 647.943 597.634 641.783ZM859.978 295.224C862.897 292.144 866.921 290.35 871.163 290.236C875.404 290.122 879.518 291.699 882.598 294.618C885.678 297.537 887.472 301.56 887.585 305.802C887.699 310.044 886.123 314.157 883.203 317.237L859.978 295.224ZM762.483 246.905C765.405 243.83 769.427 242.039 773.668 241.925C777.908 241.812 782.02 243.385 785.102 246.299L936.066 389.387C939.146 392.306 940.94 396.329 941.053 400.571C941.167 404.813 939.591 408.926 936.672 412.006C933.753 415.086 929.729 416.88 925.488 416.993C921.246 417.107 917.132 415.531 914.052 412.612L763.089 269.524C760.014 266.602 758.223 262.58 758.109 258.34C757.996 254.099 759.569 249.987 762.483 246.905ZM712.65 287.852C709.57 284.933 707.776 280.91 707.662 276.668C707.549 272.426 709.125 268.312 712.044 265.233C714.963 262.153 718.986 260.359 723.228 260.245C727.47 260.131 731.584 261.708 734.663 264.627L920.465 440.734C923.544 443.654 925.338 447.677 925.452 451.919C925.566 456.161 923.99 460.274 921.07 463.354C918.151 466.434 914.128 468.228 909.886 468.341C905.644 468.455 901.531 466.879 898.451 463.96L712.65 287.852ZM782.931 376.512L806.156 398.525L663.069 549.488L639.844 527.475L782.931 376.512ZM525.535 485.266C522.456 482.346 520.662 478.323 520.548 474.081C520.434 469.839 522.01 465.726 524.93 462.646C527.849 459.566 531.872 457.772 536.114 457.659C540.356 457.545 544.469 459.121 547.549 462.04L733.35 638.148C736.43 641.067 738.224 645.09 738.338 649.332C738.451 653.574 736.875 657.688 733.956 660.767C731.037 663.847 727.014 665.641 722.772 665.755C718.53 665.869 714.416 664.292 711.337 661.373L525.535 485.266ZM509.934 536.613C506.854 533.694 505.06 529.671 504.947 525.429C504.833 521.187 506.409 517.074 509.328 513.994C512.247 510.914 516.271 509.12 520.512 509.007C524.754 508.893 528.868 510.469 531.948 513.388L682.911 656.476C685.991 659.395 687.785 663.418 687.899 667.66C688.012 671.902 686.436 676.015 683.517 679.095C680.598 682.175 676.575 683.969 672.333 684.083C668.091 684.196 663.977 682.62 660.898 679.701L509.934 536.613ZM562.797 608.763L586.022 630.776C583.103 633.856 579.079 635.65 574.838 635.764C570.596 635.878 566.482 634.301 563.402 631.382C560.323 628.463 558.528 624.44 558.415 620.198C558.301 615.956 559.877 611.843 562.797 608.763Z" fill="black"/>
</svg>
